<svg version="1.2" xmlns="http://www.w3.org/2000/svg" viewBox="0 0 907 1337" width="200" height="295">
	<title>vintage-1781619-svg</title>
	<style>
		.s0 { fill: #000000 } 
	</style>
	<path class="s0" d="m509.6 49h0.8c-5.7 4.8-11.3 9.7-15.9 15.6-8.3 10.3-13.3 23.2-13.8 36.4-0.3 16.8 5.6 33.3 15.2 47 3.8 5.5 10 10.4 17.1 9.9 4.9-0.2 8.5-4.6 10.1-8.9 6.4-17.1 8.7-36.2 19.8-51.3 6.6-9.3 18-14.3 29.3-14.1-4.6 3.1-9.4 6.2-12.9 10.5-12.8 15-19.3 34.5-21.5 53.8-0.8 10-0.9 20.6 3.8 29.7 2.3 4.8 7.1 8.1 12.4 8.9 16.2 2.4 33.6-5.1 42.8-18.7 3.5-4.9 5.2-10.8 6.4-16.7 0.6-4.1-0.1-8.2 0.6-12.3 5 10.5 5.5 23 1 33.7-1.8 5.9-6.1 11.4-5.1 17.7 1.8 3.9 6.4 5.2 10.3 6.1 11.9 2.1 23.8-3.1 33.4-9.7 11.9-8.6 21-20.4 28.9-32.6-2.6 6.5-3.8 13.5-6.1 20.1-5.4 14.6-17.1 27.3-32.2 31.9-18.6 5.9-38.2 2.7-57.1 0.3-5.9-1.1-11.9-1-17.9-0.5-4.5 1-9.3 2.3-12.5 5.8-3.8 4-4 10.4-2 15.3 2.3 5.7 6.7 10.4 11.5 14.2 5.8 4.6 11.8 9.4 19.1 11.5 9.3 3 19.2 2.6 28.8 3.7 13.8 0.7 27.5 1.8 41 4.4 10.2 2.1 20.2 4.7 30.2 7.6 18.5 5.1 37.5 9.3 55.3 17 8.4 4 17.7 8.7 21.6 17.7 1.9 6.5 0.6 14-3.4 19.6-4.9 4.8-12.7 3.2-18.3 6.4-6.1 5.2-12.4 10.2-19.7 13.5-3.7 1.6-7.7 0.8-11.6 1.5-11.1 1.4-22.9 4.8-30.6 13.5-2.3 2.6-4.9 5.8-4.1 9.5 2.9 20.2 4.5 40.6 4 61-0.8 16.4-2 32.7-3.6 49-0.1 4.7-0.4 9.4 0.7 13.9 1.4 7.1 5.1 13.5 8.8 19.6 5.7 9.4 12 18.4 17.8 27.7 11.5 19.4 18.7 41 23.8 62.9l0.4 0.6c2.3 10.4 4.8 20.8 6.8 31.3 32.9-11.5 66.4-21.4 100.2-29.9 7.6-2 14.9-5.4 22.9-5.5 6.6 0 12.1 4.8 15.2 10.3 3.9 6.5 9.6 12.2 11.7 19.7v6.7c-3 14.1-12 25.8-18.2 38.5-6.4 12.6-12.5 25.9-12.7 40.2 0.1 18.7 1 37.4-0.3 56-0.2 2.9 0 5.9-1.5 8.5-2.8 5-7.9 8-11.9 11.9-15.7 14.2-28.1 31.5-40.8 48.3-2.8 3.6-5.6 7.3-9.5 9.8q-1.2-0.7-2.3-1.5c-3.1-7.4 1.1-15.5-0.8-23.1-0.9-7-3.1-14-2.8-21.1 4.5-11.8 18.2-15.7 24.9-25.8 6.7-8.9 4.6-20.6 6.1-30.9 0.9-23.1 1.8-46.3 7.4-68.8-16.1 5.6-30.5 14.9-43.6 25.7-16.3 13.1-30.9 28.3-48.5 39.9-14.2 6.2-30 8.3-44.2 14.7-28.6 18.4-60.5 31.1-93.3 40-41.1 11.4-83.5 17.1-125.1 26.3-35.9 8.1-72.3 19.5-101.8 42.4-14 11-21.6 27.6-29.6 43-7.4 14.3-15.3 28.8-26.6 40.5-12.1 10.9-25.7 19.9-38.9 29.3-29.6 20.7-59.3 41.4-86.8 64.9-10.1 8.6-19.6 17.9-28.6 27.6-8.6 10-16.9 20.7-21 33.4-2.5 7.4-1.9 15.3-2.3 23-1.4 24-1.5 48.3-6.3 71.9-2.9 15-8.8 29.7-19.3 40.9-5.1 5.9-12.1 9.9-17.4 15.5-6.7 6.6-12.7 14-20.3 19.7-7 5.5-14.9 9.4-23 12.9v-13.5c0.6-12.9 1.4-25.8 1.9-38.7 1.7-2 4.4-2.9 6.6-4.4 7.5-4.9 15.2-10 20.3-17.5 4.6-6.6 5-14.9 8.1-22.2 1.8-4.3 1.5-9.1 2-13.6 2.3-26 2.1-52.1-0.3-78.1-0.7-12.7-3.5-26.5 2.7-38.4 5.7-11.1 14.2-20.5 22.4-29.8 11.5-12.8 23.6-25.2 34.4-38.6 6.2-7 11.7-14.6 15.9-22.9 6.7-13.3 9.1-28.5 8.3-43.3-1.7-24-9.3-47.1-13-70.8-1.2-7.4-1.3-14.9-2.9-22.2-4.2-22.2-0.1-45.1 7.2-66.3-15.8 0.2-30.8-6.1-43.9-14.5-8.2-5.3-16.7-10.3-23.9-17-7.7-6.7-15.1-14.8-17.3-25.1-1.8-7-0.1-14.2 1.6-21 5.1-17.7 15.5-33.5 28.2-46.7 0.2 5.5 0.1 11.1 0.8 16.7 1.4 19.4 7.6 38.9 19.6 54.4 6.7 6.2 13 13.2 21.2 17.7 9.2 5.2 19.8 7.5 30.2 8.6 16.1-15.9 33.4-31.1 54.3-40.1 20.8-9.1 43.7-11.5 65.9-15.1 12.9-2.2 26.2-3.7 38.2-9.2 13.9-6.4 25.6-16.2 38.7-24 29.7-18 62.8-30.8 89.3-53.8 8.9-7.8 16.3-17.1 23.9-26.1 12.1-14.8 24-29.9 33.6-46.5 7.6-12.6 13.2-26.5 16.2-41 2.9-14.2 3.9-28.8 5-43.2-1.1-2.9 0.9-5.6 0.9-8.5 0.7-9.7 2.2-19.4 3-29.1 0.6-9.4-1.4-18.6-3.5-27.7-5.3-22.4-3.6-45.7-1.8-68.4 0.9-5.4 0.4-10.9 1.7-16.3-9.5-3-19-7.1-25.4-14.9-8-9.7-12.7-21.5-19.6-32 10.9-3.6 22.9-4.3 33.6 0 4.8 1.6 8.9 4.9 13.4 7-0.2-0.4-0.6-1.1-0.8-1.5-0.9-8.3-3.3-16.4-6.3-24.1-13.5-34.7-40.3-62.1-54.6-96.4-5-17.2-5.6-37.1 4-53 7.9-13.4 21.7-21.9 35.8-27.8z"/>
</svg>